# xmcd
#
# Track frame offsets: 
#        150
#        14579
#        37509
#        56262
#        69380
#        87528
#        107239
#        126294
#        140108
#        153289
#        170977
#        186653
#        198254
#
# Disc length: 2842 seconds
#
# Revision: 0
# Processed by: cddbd v1.5.2PL0 Copyright (c) Steve Scherf et al.
# Submitted via: ExactAudioCopy v0.95b3
#
DISCID=bb0b180d
DTITLE=Various Artist - KHYI New Music Sampler
DYEAR=2000
DGENRE=Country
TTITLE0=Slaid Cleaves - Broke Down
TTITLE1=Peter Bruntnell - NFB
TTITLE2=Jimmie Dale Gilmore - Your Love is My Rest
TTITLE3=Doug Sahm - Oh No Not Again
TTITLE4=Kentucky Headhunters - Too Much to Lose
TTITLE5=Emmylou Harris - Colors of Your Heart
TTITLE6=Joe Ely - Me and Billy The Kid
TTITLE7=Dave Carter and Tracy Grammer - Crocodile Man
TTITLE8=Tish Hinojosa - Hey Little Love
TTITLE9=Brooklyn Cowboys - Reachin For the Sky
TTITLE10=Sleepy Labeef - Detour
TTITLE11=Ray Price - Better Class of Losers
TTITLE12=Kenny Butterill - How Far Can We Go?
EXTD=
EXTT0=
EXTT1=
EXTT2=
EXTT3=
EXTT4=
EXTT5=
EXTT6=
EXTT7=
EXTT8=
EXTT9=
EXTT10=
EXTT11=
EXTT12=
PLAYORDER=
